#!OML:ASF I:\Actors\actors\Patient Classification 1\Patient 1\Session 1\Subject1.ASF
:FULLY-SPECIFIED
:DEGREES
470
root 0.0178069 17.6069 8.38623 9.18673 5.63342 -8.34744
lowerback 2.90015 2.75723 7.22633
upperback -0.770239 3.92729 -1.16554
thorax -1.85929 1.86939 -5.41633
lowerneck 1.90725 2.01589 3.8898
upperneck -1.51383 3.00964 8.94848
head -0.884877 1.39558 2.10917
rclavicle 5.96354e-015 -1.27222e-014
rhumerus -33.2579 28.5404 -76.4948
rradius 143.93
rwrist -33.6793
rhand 69.3154 -57.1835
rfingers 7.12502
rthumb 73.8944 8.71446
lclavicle 5.96354e-015 -1.27222e-014
lhumerus -31.558 -49.6702 77.8304
lradius 143.186
lwrist 25.048
lhand 6.79758 -36.4251
lfingers 7.12502
lthumb 32.083 -9.23581
rfemur -5.52201 20.8745 25.0519
rtibia 6.583
rfoot -15.4992 -28.095
rtoes 3.03816
lfemur -4.66305 -31.4239 -5.74227
ltibia 0.424899
lfoot -8.59443 35.7079
ltoes -10.01
471
root 0.0306237 17.6052 8.40432 9.14673 5.4749 -8.36146
lowerback 2.57956 2.60838 7.07169
upperback -0.986353 3.71188 -0.88033
thorax -1.96309 1.75474 -5.01622
lowerneck -0.397706 1.56757 4.67465
upperneck 1.76819 1.95667 6.6243
head 0.585964 1.06283 1.27663
rclavicle 3.45885e-014 1.59028e-015
rhumerus -31.7389 31.1197 -74.8297
rradius 143.689
rwrist -34.1571
rhand 68.6277 -56.543
rfingers 7.12502
rthumb 74.127 7.09607
lclavicle 3.45885e-014 1.59028e-015
lhumerus -32.176 -50.2851 77.7046
lradius 143.225
lwrist 25.2878
lhand 5.29947 -36.3359
lfingers 7.12502
lthumb 30.6556 -8.86939
rfemur -5.19226 21.102 25.0817
rtibia 6.18537
rfoot -15.3506 -28.2154
rtoes 2.8417
lfemur -4.32392 -31.83 -5.93884
ltibia 0.271954
lfoot -8.82431 36.1825
ltoes -9.34305
472
root 0.0409426 17.601 8.42105 9.06167 5.32397 -8.34343
lowerback 2.46883 2.55913 7.05597
upperback -1.26417 3.64929 -0.792327
thorax -2.2048 1.70717 -4.91773
lowerneck -3.21045 1.10649 4.66251
upperneck 5.31249 0.923342 5.71161
head 2.22291 0.714419 1.04596
rclavicle -2.78299e-014 -1.03368e-014
rhumerus -30.4706 33.4292 -73.6285
rradius 143.481
rwrist -34.5186
rhand 68.1131 -56.2789
rfingers 7.12502
rthumb 74.2841 5.62776
lclavicle -2.78299e-014 -1.03368e-014
lhumerus -32.4837 -51.261 77.2885
lradius 143.223
lwrist 25.5733
lhand 4.11727 -36.2614
lfingers 7.12502
lthumb 29.5277 -8.58964
rfemur -4.87955 21.3362 25.0905
rtibia 5.91587
rfoot -15.3628 -28.3322
rtoes 3.0577
lfemur -3.98509 -32.0738 -6.17233
ltibia 0.170033
lfoot -9.03057 36.4774
ltoes -8.6615
473
root 0.0488837 17.596 8.43622 8.90802 5.13127 -8.29397
lowerback 2.42893 2.50035 6.95303
upperback -1.50736 3.57535 -0.70436
thorax -2.45667 1.65623 -4.77273
lowerneck -5.49334 0.72299 4.76409
upperneck 8.18962 0.124582 4.85246
head 3.6408 0.424334 0.772446
rclavicle -9.44227e-015 -1.27222e-014
rhumerus -29.1327 35.7238 -72.4758
rradius 143.271
rwrist -34.8125
rhand 68.2719 -56.4156
rfingers 7.12502
rthumb 74.2372 6.0296
lclavicle -9.44227e-015 -1.27222e-014
lhumerus -32.5954 -52.1991 76.6473
lradius 143.229
lwrist 25.8103
lhand 3.35154 -36.2749
lfingers 7.12502
lthumb 28.7964 -8.47632
rfemur -4.58309 21.4093 25.0888
rtibia 5.81298
rfoot -15.3302 -28.2817
rtoes 2.99462
lfemur -3.61303 -32.0588 -6.4768
ltibia 0.155264
lfoot -9.09149 36.5578
ltoes -8.60518
474
root 0.0554555 17.5901 8.44938 8.70759 4.91354 -8.26446
lowerback 2.40304 2.47726 6.87408
upperback -1.66616 3.54866 -0.587502
thorax -2.62252 1.63477 -4.61018
lowerneck -7.18959 0.372764 4.83305
upperneck 10.2958 -0.506933 4.03456
head 4.73816 0.166041 0.480164
rclavicle 6.41081e-014 -1.27222e-014
rhumerus -27.7383 37.7589 -71.2266
rradius 143.046
rwrist -34.8371
rhand 69.057 -56.8515
rfingers 7.12502
rthumb 73.9848 8.2054
lclavicle 6.41081e-014 -1.27222e-014
lhumerus -32.2805 -53.186 75.7674
lradius 143.254
lwrist 26.0582
lhand 2.8741 -36.2412
lfingers 7.12502
lthumb 28.3402 -8.36594
rfemur -4.33079 21.3201 25.1136
rtibia 5.85624
rfoot -15.2822 -28.0373
rtoes 2.6532
lfemur -3.24021 -31.8272 -6.76822
ltibia 0.207752
lfoot -9.06081 36.4968
ltoes -9.0421
475
root 0.0605732 17.5847 8.4595 8.52049 4.71106 -8.23331
lowerback 2.39561 2.49357 6.85834
upperback -1.78056 3.57544 -0.521329
thorax -2.73902 1.64164 -4.53682
lowerneck -8.65875 0.0614835 4.56433
upperneck 12.5225 -1.07033 3.84078
head 5.2083 -0.0438543 0.376805
rclavicle -3.3694e-014 -1.03368e-014
rhumerus -26.4551 39.4516 -70.1696
rradius 142.824
rwrist -34.7691
rhand 69.7759 -57.3632
rfingers 7.12502
rthumb 73.7246 10.009
lclavicle -3.3694e-014 -1.03368e-014
lhumerus -31.5083 -54.0539 74.7245
lradius 143.185
lwrist 26.3174
lhand 2.66722 -36.0978
lfingers 7.12502
lthumb 28.1425 -8.18979
rfemur -4.1826 21.1896 25.1196
rtibia 6.02849
rfoot -15.3596 -27.7414
rtoes 2.48285
lfemur -2.92329 -31.5524 -7.01912
ltibia 0.267432
lfoot -9.08123 36.403
ltoes -9.21656
476
root 0.0644624 17.5806 8.46987 8.34502 4.51755 -8.11614
lowerback 2.35568 2.51671 6.77015
upperback -1.88032 3.60372 -0.523941
thorax -2.82149 1.65191 -4.49223
lowerneck -10.1738 -0.20673 4.09609
upperneck 14.5754 -1.58309 3.98878
head 6.11503 -0.224224 0.463267
rclavicle 1.48095e-014 7.95139e-016
rhumerus -25.3864 40.8815 -69.425
rradius 142.661
rwrist -34.8284
rhand 70.3103 -57.6382
rfingers 7.12502
rthumb 73.514 11.405
lclavicle 1.48095e-014 7.95139e-016
lhumerus -30.5747 -54.7351 73.6884
lradius 143.067
lwrist 26.6311
lhand 2.53533 -35.8943
lfingers 7.12502
lthumb 28.0164 -7.96566
rfemur -4.08296 21.0196 25.0241
rtibia 6.27125
rfoot -15.4089 -27.4416
rtoes 2.30198
lfemur -2.59008 -31.4566 -7.39111
ltibia 0.330419
lfoot -9.24815 36.4397
ltoes -8.92378
477
root 0.0674014 17.5779 8.48231 8.14543 4.30802 -7.9564
lowerback 2.29372 2.56157 6.6209
upperback -1.95572 3.65559 -0.543273
thorax -2.86565 1.67727 -4.42958
lowerneck -11.2068 -0.740326 3.71538
upperneck 15.8861 -2.40701 4.1817
head 6.71997 -0.573984 0.515233
rclavicle -2.79292e-014 -1.82882e-014
rhumerus -24.5868 41.9904 -68.8957
rradius 142.55
rwrist -34.9776
rhand 70.6229 -57.6157
rfingers 7.12502
rthumb 73.3842 12.3844
lclavicle -2.79292e-014 -1.82882e-014
lhumerus -29.7453 -55.3147 72.9024
lradius 142.97
lwrist 26.9133
lhand 2.43824 -35.8399
lfingers 7.12502
lthumb 27.9236 -7.89608
rfemur -3.94733 20.79 24.8962
rtibia 6.50991
rfoot -15.3432 -27.1111
rtoes 1.83826
lfemur -2.16432 -31.46 -7.86856
ltibia 0.364273
lfoot -9.43032 36.5547
ltoes -8.69687
478
root 0.0677919 17.5761 8.49317 7.96857 4.14407 -7.88527
lowerback 2.22938 2.61652 6.53988
upperback -2.0071 3.72366 -0.520788
thorax -2.88051 1.71145 -4.36115
lowerneck -12.8021 -1.74658 2.75205
upperneck 17.3613 -3.91691 4.96444
head 7.5211 -1.21636 0.77229
rclavicle -2.79292e-014 -4.77083e-015
rhumerus -23.9684 42.7416 -68.4454
rradius 142.443
rwrist -35.1189
rhand 70.9508 -57.2111
rfingers 7.12502
rthumb 73.2431 13.7765
lclavicle -2.79292e-014 -4.77083e-015
lhumerus -29.0823 -55.7649 72.422
lradius 142.891
lwrist 27.0689
lhand 2.31417 -35.8777
lfingers 7.12502
lthumb 27.805 -7.91468
rfemur -3.84544 20.5604 24.8722
rtibia 6.74357
rfoot -15.297 -26.8246
rtoes 1.36928
lfemur -1.79781 -31.3225 -8.15819
ltibia 0.335581
lfoot -9.48057 36.5331
ltoes -8.78123
479
root 0.0669941 17.5756 8.50052 7.8324 4.12197 -7.90815
lowerback 2.33123 2.66296 6.676
upperback -2.1364 3.80341 -0.520289
thorax -3.05513 1.73847 -4.44952
lowerneck -12.9204 -1.90461 2.79922
upperneck 17.3736 -4.13998 4.90709
head 7.5469 -1.32267 0.721847
rclavicle -2.88238e-015 2.3059e-014
rhumerus -23.727 43.1635 -68.2267
rradius 142.368
rwrist -35.2188
rhand 71.206 -56.855
rfingers 7.12502
rthumb 73.1297 14.8892
lclavicle -2.88238e-015 2.3059e-014
lhumerus -28.6439 -56.2348 72.1624
lradius 142.855
lwrist 27.2137
lhand 2.14317 -36.0413
lfingers 7.12502
lthumb 27.6415 -8.05193
rfemur -3.81104 20.3912 24.9507
rtibia 7.0005
rfoot -15.3436 -26.6783
rtoes 1.10453
lfemur -1.61235 -31.0807 -8.21057
ltibia 0.327929
lfoot -9.39561 36.3287
ltoes -9.06466
480
root 0.0681363 17.5758 8.5051 7.6934 4.22605 -7.92578
lowerback 2.6337 2.69241 6.94539
upperback -2.32347 3.88294 -0.572955
thorax -3.39209 1.75305 -4.6821
lowerneck -13.1558 -2.0167 2.55939
upperneck 17.6069 -4.35984 5.36094
head 7.68581 -1.38764 0.884774
rclavicle -5.86415e-015 3.97569e-015
rhumerus -23.8904 43.334 -68.2998
rradius 142.359
rwrist -35.2982
rhand 71.1609 -56.8939
rfingers 7.12502
rthumb 73.15 14.7175
lclavicle -5.86415e-015 3.97569e-015
lhumerus -28.375 -56.72 72.0507
lradius 142.881
lwrist 27.331
lhand 2.05875 -36.1387
lfingers 7.12502
lthumb 27.5608 -8.13644
rfemur -3.75885 20.2399 25.0241
rtibia 7.22039
rfoot -15.3873 -26.6501
rtoes 0.814769
lfemur -1.51406 -30.9321 -8.24447
ltibia 0.367211
lfoot -9.23571 36.0828
ltoes -9.49836
481
root 0.0694646 17.5747 8.50709 7.59204 4.40578 -7.92397
lowerback 2.8014 2.65862 7.10345
upperback -2.39772 3.86154 -0.565337
thorax -3.55887 1.72959 -4.77444
lowerneck -13.3122 -2.01557 2.39421
upperneck 17.5574 -4.41091 5.78092
head 7.71342 -1.38115 1.04298
rclavicle 2.3059e-014 1.74931e-014
rhumerus -23.8742 43.449 -68.2575
rradius 142.376
rwrist -35.4117
rhand 71.1713 -56.8666
rfingers 7.12502
rthumb 73.1453 14.7755
lclavicle 2.3059e-014 1.74931e-014
lhumerus -28.1222 -56.9402 71.9689
lradius 142.926
lwrist 27.3199
lhand 2.06043 -35.7845
lfingers 7.12502
lthumb 27.5624 -7.78257
rfemur -3.69116 20.148 25.0708
rtibia 7.33384
rfoot -15.4672 -26.7368
rtoes 0.787197
lfemur -1.51016 -30.9048 -8.26071
ltibia 0.43467
lfoot -9.12452 35.8686
ltoes -9.78477
482
root 0.0685437 17.5737 8.50764 7.57756 4.629 -7.96075
lowerback 2.79634 2.58446 7.19302
upperback -2.41597 3.76977 -0.485573
thorax -3.58757 1.68081 -4.73812
lowerneck -13.4243 -1.93004 2.30889
upperneck 17.4293 -4.33094 6.08106
head 7.69968 -1.32211 1.16299
rclavicle 1.56046e-014 1.51076e-014
rhumerus -23.7982 43.5627 -68.1654
rradius 142.411
rwrist -35.5585
rhand 71.2697 -56.7292
rfingers 7.12502
rthumb 73.101 15.2024
lclavicle 1.56046e-014 1.51076e-014
lhumerus -28.1564 -57.0059 72.1254
lradius 142.953
lwrist 27.2446
lhand 2.02677 -35.4409
lfingers 7.12502
lthumb 27.5302 -7.43375
rfemur -3.67282 20.1536 25.1445
rtibia 7.35571
rfoot -15.5689 -26.931
rtoes 0.984647
lfemur -1.65968 -30.863 -8.13176
ltibia 0.515893
lfoot -9.05398 35.6265
ltoes -9.8886
483
root 0.0666923 17.5742 8.50921 7.63002 4.84737 -7.96732
lowerback 2.73942 2.54544 7.27091
upperback -2.45458 3.71996 -0.436772
thorax -3.60128 1.653 -4.72689
lowerneck -13.5096 -1.86207 2.34691
upperneck 17.3701 -4.26765 6.19369
head 7.69675 -1.27885 1.19975
rclavicle -2.49972e-014 -4.29375e-014
rhumerus -24.0405 43.5633 -68.26
rradius 142.461
rwrist -35.6802
rhand 71.3349 -56.6189
rfingers 7.12502
rthumb 73.0713 15.5037
lclavicle -2.49972e-014 -4.29375e-014
lhumerus -28.4609 -57.1612 72.4791
lradius 142.959
lwrist 27.2142
lhand 1.93683 -35.641
lfingers 7.12502
lthumb 27.4442 -7.62018
rfemur -3.67834 20.1238 25.1547
rtibia 7.28564
rfoot -15.6086 -27.1009
rtoes 1.15786
lfemur -1.86594 -30.8448 -8.00739
ltibia 0.572503
lfoot -8.95966 35.4341
ltoes -9.925
484
root 0.0652529 17.5752 8.51148 7.71136 5.02653 -7.91501
lowerback 2.5362 2.50836 7.22663
upperback -2.38089 3.65071 -0.3694
thorax -3.42493 1.62979 -4.61525
lowerneck -13.5604 -1.72873 2.55428
upperneck 17.1491 -4.10173 6.12381
head 7.62433 -1.19978 1.15939
rclavicle -4.83047e-014 -1.82882e-014
rhumerus -24.0703 43.501 -68.1195
rradius 142.446
rwrist -35.8278
rhand 71.3594 -56.6039
rfingers 7.12502
rthumb 73.0601 15.5904
lclavicle -4.83047e-014 -1.82882e-014
lhumerus -28.5352 -57.1471 72.6611
lradius 142.888
lwrist 27.3
lhand 1.94192 -36.0013
lfingers 7.12502
lthumb 27.449 -7.98127
rfemur -3.67475 20.086 25.0826
rtibia 7.16013
rfoot -15.6729 -27.1951
rtoes 1.60497
lfemur -2.05332 -30.8621 -7.97545
ltibia 0.612897
lfoot -8.79333 35.3236
ltoes -10.1304
